/* XPM */
static char *_d33f5d7db3a4a30baa2954706676088gtOWMqfxIiPmZjmN[] = {
/* columns rows colors chars-per-pixel */
"100 100 80 1 ",
"  c black",
". c #220901",
"X c #491303",
"o c #671B04",
"O c #872306",
"+ c #A32A07",
"@ c #B52F07",
"# c #C53208",
"$ c #DA3809",
"% c #481203",
"& c #130501",
"* c #651A04",
"= c #9C2806",
"- c #CB3408",
"; c #9B2806",
": c #631904",
"> c #030100",
", c #411103",
"< c #962606",
"1 c #D73709",
"2 c #952606",
"3 c #3F1003",
"4 c #020000",
"5 c #B22E07",
"6 c #B12D07",
"7 c #461203",
"8 c #4E1403",
"9 c #B72F08",
"0 c #4D1403",
"q c #150501",
"w c #902506",
"e c #441203",
"r c #070200",
"t c #802105",
"y c #7F2005",
"u c #040100",
"i c #0D0301",
"p c #A42A07",
"a c #A22A07",
"s c #0E0401",
"d c #180601",
"f c #B32E07",
"g c #190601",
"h c #250902",
"j c #C23208",
"k c #C13208",
"l c #1F0801",
"z c #100401",
"x c #B42E07",
"c c #0B0300",
"v c #AC2C07",
"b c #A12907",
"n c #7B2005",
"m c #451203",
"M c #3A0F02",
"N c #CC3408",
"B c #C53308",
"V c #962706",
"C c #0A0300",
"Z c #C33208",
"A c #521503",
"S c #BB3008",
"D c #BA3008",
"F c #120501",
"G c #D63709",
"H c #601904",
"J c #CA3408",
"K c #290B02",
"L c #741E05",
"P c #6D1C05",
"I c #AE2D07",
"U c #BF3108",
"Y c #B92F08",
"T c #C63308",
"R c #D43609",
"E c #5C1804",
"W c #471203",
"Q c #110401",
"! c #160601",
"~ c #380E02",
/* pixels */
"                                                                                                    ",
"                                                                                                    ",
"                                                                                                    ",
"                                                                                                    ",
"                                                                                                    ",
"                                                                                                    ",
"                                                                                                    ",
"                                                                                                    ",
"                                                                                                    ",
"                                                                                                    ",
"                                                                                                    ",
"                                                                                                    ",
"                                                                                                    ",
"                                                                                                    ",
"                                                                                                    ",
"                                          .XoO+@#$$#@+Oo%.                                          ",
"                                      &*=-$$$$$$$$$$$$$$$$-;:&                                      ",
"                                   >,<1$$$$$$$$$$$$$$$$$$$$$$123>                                   ",
"                                 4%5$$$$$$$$$$$$$$$$$$$$$$$$$$$$674                                 ",
"                               >89$$$$$$$$$$$$$$$$$$$$$$$$$$$$$$$$904                               ",
"                              qw$$$$$$$$$$$$$$$$$$$$$$$$$$$$$$$$$$$$wq                              ",
"                             e-$$$$$$$$$$$$$$$$$$$$$$$$$$$$$$$$$$$$$$-e                             ",
"                           rt$$$$$$$$$$$$$$$$$$$$$$$$$$$$$$$$$$$$$$$$$$yu                           ",
"                          ip$$$$$$$$$$$$$$$$$$$$$$$$$$$$$$$$$$$$$$$$$$$$as                          ",
"                         d@$$$$$$$$$$$$$$$$$$$$$$$$$$$$$$$$$$$$$$$$$$$$$$fg                         ",
"                        hj$$$$$$$$$$$$$$$$$$$$$$$$$$$$$$$$$$$$$$$$$$$$$$$$kl                        ",
"                       zx$$$$$$$$$$$$$$$$$$$$$$$$$$$$$$$$$$$$$$$$$$$$$$$$$$xc                       ",
"                      rv$$$$$$$$$$$$$$$$$$$$$$$$$$$$$$$$$$$$$$$$$$$$$$$$$$$$br                      ",
"                      n$$$$$$$$$$$$$$$$$$$$$$$$$$$$$$$$$$$$$$$$$$$$$$$$$$$$$$n                      ",
"                     m$$$$$$$$$$$$$$$$$$$$$$$$$$$$$$$$$$$$$$$$$$$$$$$$$$$$$$$$M                     ",
"                    qN$$$$$$$$$$$$$$$$$$$$$$$$$$$$$$$$$$$$$$$$$$$$$$$$$$$$$$$$Bq                    ",
"                    V$$$$$$$$$$$$$$$$$$$$$$$$$$$$$$$$$$$$$$$$$$$$$$$$$$$$$$$$$$V                    ",
"                   e$$$$$$$$$$$$$$$$$$$$$$$$$$$$$$$$$$$$$$$$$$$$$$$$$$$$$$$$$$$$e                   ",
"                  CZ$$$$$$$$$$$$$$$$$$$$$$$$$$$$$$$$$$$$$$$$$$$$$$$$$$$$$$$$$$$$jC                  ",
"                  A$$$$$$$$$$$$$$$$$$$$$$$$$$$$$$$$$$$$$$$$$$$$$$$$$$$$$$$$$$$$$$A                  ",
"                 >S$$$$$$$$$$$$$$$$$$$$$$$$$$$$$$$$$$$$$$$$$$$$$$$$$$$$$$$$$$$$$$D>                 ",
"                 A$$$$$$$$$$$$$$$$$$$$$$$$$$$$$$$$$$$$$$$$$$$$$$$$$$$$$$$$$$$$$$$$A                 ",
"                 V$$$$$$$$$$$$$$$$$$$$$$$$$$$$$$$$$$$$$$$$$$$$$$$$$$$$$$$$$$$$$$$$V                 ",
"                FG$$$$$$$$$$$$$$$$$$$$$$$$$$$$$$$$$$$$$$$$$$$$$$$$$$$$$$$$$$$$$$$$G&                ",
"                H$$$$$$$$$$$$$$$$$$$$$$$$$$$$$$$$$$$$$$$$$$$$$$$$$$$$$$$$$$$$$$$$$$H                ",
"                V$$$$$$$$$$$$$$$$$$$$$$$$$$$$$$$$$$$$$$$$$$$$$$$$$$$$$$$$$$$$$$$$$$V                ",
"               4-$$$$$$$$$$$$$$$$$$$$$$$$$$$$$$$$$$$$$$$$$$$$$$$$$$$$$$$$$$$$$$$$$$J4               ",
"               K$$$$$$$$$$$$$$$$$$$$$$$$$$$$$$$$$$$$$$$$$$$$$$$$$$$$$$$$$$$$$$$$$$$$K               ",
"               A$$$$$$$$$$$$$$$$$$$$$$$$$$$$$$$$$$$$$$$$$$$$$$$$$$$$$$$$$$$$$$$$$$$$A               ",
"               L$$$$$$$$$$$$$$$$$$$$$$$$$$$$$$$$$$$$$$$$$$$$$$$$$$$$$$$$$$$$$$$$$$$$P               ",
"               V$$$$$$$$$$$$$$$$$$$$$$$$$$$$$$$$$$$$$$$$$$$$$$$$$$$$$$$$$$$$$$$$$$$$w               ",
"               5$$$$$$$$$$$$$$$$$$$$$$$$$$$$$$$$$$$$$$$$$$$$$$$$$$$$$$$$$$$$$$$$$$$$I               ",
"               U$$$$$$$$$$$$$$$$$$$$$$$$$$$$$$$$$$$$$$$$$$$$$$$$$$$$$$$$$$$$$$$$$$$$Y               ",
"               T$$$$$$$$$$$$$$$$$$$$$$$$$$$$$$$$$$$$$$$$$$$$$$$$$$$$$$$$$$$$$$$$$$$$T               ",
"               R$$$$$$$$$$$$$$$$$$$$$$$$$$$$$$$$$$$$$$$$$$$$$$$$$$$$$$$$$$$$$$$$$$$$R               ",
"               R$$$$$$$$$$$$$$$$$$$$$$$$$$$$$$$$$$$$$$$$$$$$$$$$$$$$$$$$$$$$$$$$$$$$R               ",
"               T$$$$$$$$$$$$$$$$$$$$$$$$$$$$$$$$$$$$$$$$$$$$$$$$$$$$$$$$$$$$$$$$$$$$T               ",
"               U$$$$$$$$$$$$$$$$$$$$$$$$$$$$$$$$$$$$$$$$$$$$$$$$$$$$$$$$$$$$$$$$$$$$Y               ",
"               5$$$$$$$$$$$$$$$$$$$$$$$$$$$$$$$$$$$$$$$$$$$$$$$$$$$$$$$$$$$$$$$$$$$$I               ",
"               V$$$$$$$$$$$$$$$$$$$$$$$$$$$$$$$$$$$$$$$$$$$$$$$$$$$$$$$$$$$$$$$$$$$$w               ",
"               L$$$$$$$$$$$$$$$$$$$$$$$$$$$$$$$$$$$$$$$$$$$$$$$$$$$$$$$$$$$$$$$$$$$$P               ",
"               A$$$$$$$$$$$$$$$$$$$$$$$$$$$$$$$$$$$$$$$$$$$$$$$$$$$$$$$$$$$$$$$$$$$$A               ",
"               K$$$$$$$$$$$$$$$$$$$$$$$$$$$$$$$$$$$$$$$$$$$$$$$$$$$$$$$$$$$$$$$$$$$$K               ",
"               4J$$$$$$$$$$$$$$$$$$$$$$$$$$$$$$$$$$$$$$$$$$$$$$$$$$$$$$$$$$$$$$$$$$-4               ",
"                V$$$$$$$$$$$$$$$$$$$$$$$$$$$$$$$$$$$$$$$$$$$$$$$$$$$$$$$$$$$$$$$$$$V                ",
"                E$$$$$$$$$$$$$$$$$$$$$$$$$$$$$$$$$$$$$$$$$$$$$$$$$$$$$$$$$$$$$$$$$$E                ",
"                &G$$$$$$$$$$$$$$$$$$$$$$$$$$$$$$$$$$$$$$$$$$$$$$$$$$$$$$$$$$$$$$$$GF                ",
"                 V$$$$$$$$$$$$$$$$$$$$$$$$$$$$$$$$$$$$$$$$$$$$$$$$$$$$$$$$$$$$$$$$V                 ",
"                 W$$$$$$$$$$$$$$$$$$$$$$$$$$$$$$$$$$$$$$$$$$$$$$$$$$$$$$$$$$$$$$$$W                 ",
"                 >D$$$$$$$$$$$$$$$$$$$$$$$$$$$$$$$$$$$$$$$$$$$$$$$$$$$$$$$$$$$$$$S>                 ",
"                  A$$$$$$$$$$$$$$$$$$$$$$$$$$$$$$$$$$$$$$$$$$$$$$$$$$$$$$$$$$$$$$A                  ",
"                   Z$$$$$$$$$$$$$$$$$$$$$$$$$$$$$$$$$$$$$$$$$$$$$$$$$$$$$$$$$$$$S                   ",
"                   e$$$$$$$$$$$$$$$$$$$$$$$$$$$$$$$$$$$$$$$$$$$$$$$$$$$$$$$$$$$$e                   ",
"                    V$$$$$$$$$$$$$$$$$$$$$$$$$$$$$$$$$$$$$$$$$$$$$$$$$$$$$$$$$$w                    ",
"                    dN$$$$$$$$$$$$$$$$$$$$$$$$$$$$$$$$$$$$$$$$$$$$$$$$$$$$$$$$JQ                    ",
"                     W$$$$$$$$$$$$$$$$$$$$$$$$$$$$$$$$$$$$$$$$$$$$$$$$$$$$$$$$m                     ",
"                      n$$$$$$$$$$$$$$$$$$$$$$$$$$$$$$$$$$$$$$$$$$$$$$$$$$$$$$n                      ",
"                      rb$$$$$$$$$$$$$$$$$$$$$$$$$$$$$$$$$$$$$$$$$$$$$$$$$$$$b                       ",
"                       cx$$$$$$$$$$$$$$$$$$$$$$$$$$$$$$$$$$$$$$$$$$$$$$$$$$xc                       ",
"                        !U$$$$$$$$$$$$$$$$$$$$$$$$$$$$$$$$$$$$$$$$$$$$$$$$U!                        ",
"                         gf$$$$$$$$$$$$$$$$$$$$$$$$$$$$$$$$$$$$$$$$$$$$$$@d                         ",
"                          sa$$$$$$$$$$$$$$$$$$$$$$$$$$$$$$$$$$$$$$$$$$$$pi                          ",
"                           uy$$$$$$$$$$$$$$$$$$$$$$$$$$$$$$$$$$$$$$$$$$tu                           ",
"                             e-$$$$$$$$$$$$$$$$$$$$$$$$$$$$$$$$$$$$$$-e                             ",
"                              qw$$$$$$$$$$$$$$$$$$$$$$$$$$$$$$$$$$$$wq                              ",
"                                ~@$$$$$$$$$$$$$$$$$$$$$$$$$$$$$$$$@~                                ",
"                                 409$$$$$$$$$$$$$$$$$$$$$$$$$$$$5%4                                 ",
"                                    32$$$$$$$$$$$$$$$$$$$$$$$$<3                                    ",
"                                      &*;-$$$$$$$$$$$$$$$$-=*&                                      ",
"                                          .%oO+@#$$#@+OoX.                                          ",
"                                                                                                    ",
"                                                                                                    ",
"                                                                                                    ",
"                                                                                                    ",
"                                                                                                    ",
"                                                                                                    ",
"                                                                                                    ",
"                                                                                                    ",
"                                                                                                    ",
"                                                                                                    ",
"                                                                                                    ",
"                                                                                                    ",
"                                                                                                    ",
"                                                                                                    ",
"                                                                                                    "
};
