/* XPM */
static char *_656b1bc099b4b1bdedec9d83d653f6cbqJo5yuPa5c5rEKG[] = {
/* columns rows colors chars-per-pixel */
"100 100 79 1 ",
"  c #DA3809",
". c #B82F08",
"X c #912506",
"o c #731D05",
"O c #531503",
"+ c #370E02",
"@ c #250902",
"# c #150501",
"$ c black",
"% c #922606",
"& c #C73308",
"* c #751E05",
"= c #3E1003",
"- c #0F0401",
"; c #3F1003",
": c #771F05",
"> c #D73709",
", c #992706",
"< c #441203",
"1 c #030100",
"2 c #451203",
"3 c #9B2806",
"4 c #D83809",
"5 c #280A02",
"6 c #290B02",
"7 c #942606",
"8 c #8C2406",
"9 c #230901",
"0 c #8D2406",
"q c #C53308",
"w c #491303",
"e c #4A1303",
"r c #962606",
"t c #D33609",
"y c #5A1704",
"u c #5B1704",
"i c #D63709",
"p c #CD3508",
"a c #360E02",
"s c #380E02",
"d c #CC3408",
"f c #C23208",
"g c #260A02",
"h c #C13208",
"j c #B52F07",
"k c #180601",
"l c #190601",
"z c #BB3008",
"x c #CA3408",
"c c #CF3509",
"v c #2E0C02",
"b c #5F1804",
"n c #952606",
"m c #A02907",
"M c #0E0401",
"N c #431103",
"B c #D03509",
"V c #170601",
"C c #882306",
"Z c #1F0801",
"A c #200801",
"S c #C83308",
"D c #040100",
"F c #7A1F05",
"G c #100401",
"H c #B12D07",
"J c #661A04",
"K c #6D1C04",
"L c #2C0B02",
"P c #1A0701",
"I c #210901",
"U c #140501",
"Y c #060200",
"T c #7E2005",
"R c #932606",
"E c #C93408",
"W c #C43208",
"Q c #1B0701",
"! c #A12907",
/* pixels */
"                                                                                                    ",
"                                                                                                    ",
"                                                                                                    ",
"                                                                                                    ",
"                                                                                                    ",
"                                                                                                    ",
"                                                                                                    ",
"                                                                                                    ",
"                                                                                                    ",
"                                                                                                    ",
"                                                                                                    ",
"                                                                                                    ",
"                                                                                                    ",
"                                                                                                    ",
"                                                                                                    ",
"                                          .XoO+@#$$#@+Oo%.                                          ",
"                                      &*=-$$$$$$$$$$$$$$$$-;:&                                      ",
"                                   >,<1$$$$$$$$$$$$$$$$$$$$$$123>                                   ",
"                                 4%5$$$$$$$$$$$$$$$$$$$$$$$$$$$$674                                 ",
"                               >89$$$$$$$$$$$$$$$$$$$$$$$$$$$$$$$$904                               ",
"                              qw$$$$$$$$$$$$$$$$$$$$$$$$$$$$$$$$$$$$eq                              ",
"                             r-$$$$$$$$$$$$$$$$$$$$$$$$$$$$$$$$$$$$$$-r                             ",
"                           ty$$$$$$$$$$$$$$$$$$$$$$$$$$$$$$$$$$$$$$$$$$ui                           ",
"                          pa$$$$$$$$$$$$$$$$$$$$$$$$$$$$$$$$$$$$$$$$$$$$sd                          ",
"                         f@$$$$$$$$$$$$$$$$$$$$$$$$$$$$$$$$$$$$$$$$$$$$$$gh                         ",
"                        jk$$$$$$$$$$$$$$$$$$$$$$$$$$$$$$$$$$$$$$$$$$$$$$$$lz                        ",
"                       xg$$$$$$$$$$$$$$$$$$$$$$$$$$$$$$$$$$$$$$$$$$$$$$$$$$gc                       ",
"                      tv$$$$$$$$$$$$$$$$$$$$$$$$$$$$$$$$$$$$$$$$$$$$$$$$$$$$st                      ",
"                      b$$$$$$$$$$$$$$$$$$$$$$$$$$$$$$$$$$$$$$$$$$$$$$$$$$$$$$b                      ",
"                     n$$$$$$$$$$$$$$$$$$$$$$$$$$$$$$$$$$$$$$$$$$$$$$$$$$$$$$$$m                     ",
"                    qM$$$$$$$$$$$$$$$$$$$$$$$$$$$$$$$$$$$$$$$$$$$$$$$$$$$$$$$$#q                    ",
"                    N$$$$$$$$$$$$$$$$$$$$$$$$$$$$$$$$$$$$$$$$$$$$$$$$$$$$$$$$$$N                    ",
"                   r$$$$$$$$$$$$$$$$$$$$$$$$$$$$$$$$$$$$$$$$$$$$$$$$$$$$$$$$$$$$r                   ",
"                  BV$$$$$$$$$$$$$$$$$$$$$$$$$$$$$$$$$$$$$$$$$$$$$$$$$$$$$$$$$$$$kB                  ",
"                  C$$$$$$$$$$$$$$$$$$$$$$$$$$$$$$$$$$$$$$$$$$$$$$$$$$$$$$$$$$$$$$C                  ",
"                 >Z$$$$$$$$$$$$$$$$$$$$$$$$$$$$$$$$$$$$$$$$$$$$$$$$$$$$$$$$$$$$$$A>                 ",
"                 C$$$$$$$$$$$$$$$$$$$$$$$$$$$$$$$$$$$$$$$$$$$$$$$$$$$$$$$$$$$$$$$$C                 ",
"                 N$$$$$$$$$$$$$$$$$$$$$$$$$$$$$$$$$$$$$$$$$$$$$$$$$$$$$$$$$$$$$$$$N                 ",
"                SD$$$$$$$$$$$$$$$$$$$$$$$$$$$$$$$$$$$$$$$$$$$$$$$$$$$$$$$$$$$$$$$$D&                ",
"                F$$$$$$$$$$$$$$$$$$$$$$$$$$$$$$$$$$$$$$$$$$$$$$$$$$$$$$$$$$$$$$$$$$F                ",
"                N$$$$$$$$$$$$$$$$$$$$$$$$$$$$$$$$$$$$$$$$$$$$$$$$$$$$$$$$$$$$$$$$$$N                ",
"               4-$$$$$$$$$$$$$$$$$$$$$$$$$$$$$$$$$$$$$$$$$$$$$$$$$$$$$$$$$$$$$$$$$$G4               ",
"               H$$$$$$$$$$$$$$$$$$$$$$$$$$$$$$$$$$$$$$$$$$$$$$$$$$$$$$$$$$$$$$$$$$$$H               ",
"               C$$$$$$$$$$$$$$$$$$$$$$$$$$$$$$$$$$$$$$$$$$$$$$$$$$$$$$$$$$$$$$$$$$$$C               ",
"               J$$$$$$$$$$$$$$$$$$$$$$$$$$$$$$$$$$$$$$$$$$$$$$$$$$$$$$$$$$$$$$$$$$$$K               ",
"               N$$$$$$$$$$$$$$$$$$$$$$$$$$$$$$$$$$$$$$$$$$$$$$$$$$$$$$$$$$$$$$$$$$$$e               ",
"               5$$$$$$$$$$$$$$$$$$$$$$$$$$$$$$$$$$$$$$$$$$$$$$$$$$$$$$$$$$$$$$$$$$$$L               ",
"               P$$$$$$$$$$$$$$$$$$$$$$$$$$$$$$$$$$$$$$$$$$$$$$$$$$$$$$$$$$$$$$$$$$$$I               ",
"               U$$$$$$$$$$$$$$$$$$$$$$$$$$$$$$$$$$$$$$$$$$$$$$$$$$$$$$$$$$$$$$$$$$$$U               ",
"               Y$$$$$$$$$$$$$$$$$$$$$$$$$$$$$$$$$$$$$$$$$$$$$$$$$$$$$$$$$$$$$$$$$$$$Y               ",
"               Y$$$$$$$$$$$$$$$$$$$$$$$$$$$$$$$$$$$$$$$$$$$$$$$$$$$$$$$$$$$$$$$$$$$$Y               ",
"               U$$$$$$$$$$$$$$$$$$$$$$$$$$$$$$$$$$$$$$$$$$$$$$$$$$$$$$$$$$$$$$$$$$$$U               ",
"               P$$$$$$$$$$$$$$$$$$$$$$$$$$$$$$$$$$$$$$$$$$$$$$$$$$$$$$$$$$$$$$$$$$$$I               ",
"               5$$$$$$$$$$$$$$$$$$$$$$$$$$$$$$$$$$$$$$$$$$$$$$$$$$$$$$$$$$$$$$$$$$$$L               ",
"               N$$$$$$$$$$$$$$$$$$$$$$$$$$$$$$$$$$$$$$$$$$$$$$$$$$$$$$$$$$$$$$$$$$$$e               ",
"               J$$$$$$$$$$$$$$$$$$$$$$$$$$$$$$$$$$$$$$$$$$$$$$$$$$$$$$$$$$$$$$$$$$$$K               ",
"               C$$$$$$$$$$$$$$$$$$$$$$$$$$$$$$$$$$$$$$$$$$$$$$$$$$$$$$$$$$$$$$$$$$$$C               ",
"               H$$$$$$$$$$$$$$$$$$$$$$$$$$$$$$$$$$$$$$$$$$$$$$$$$$$$$$$$$$$$$$$$$$$$H               ",
"               4G$$$$$$$$$$$$$$$$$$$$$$$$$$$$$$$$$$$$$$$$$$$$$$$$$$$$$$$$$$$$$$$$$$-4               ",
"                N$$$$$$$$$$$$$$$$$$$$$$$$$$$$$$$$$$$$$$$$$$$$$$$$$$$$$$$$$$$$$$$$$$N                ",
"                T$$$$$$$$$$$$$$$$$$$$$$$$$$$$$$$$$$$$$$$$$$$$$$$$$$$$$$$$$$$$$$$$$$T                ",
"                &D$$$$$$$$$$$$$$$$$$$$$$$$$$$$$$$$$$$$$$$$$$$$$$$$$$$$$$$$$$$$$$$$DS                ",
"                 N$$$$$$$$$$$$$$$$$$$$$$$$$$$$$$$$$$$$$$$$$$$$$$$$$$$$$$$$$$$$$$$$N                 ",
"                 R$$$$$$$$$$$$$$$$$$$$$$$$$$$$$$$$$$$$$$$$$$$$$$$$$$$$$$$$$$$$$$$$R                 ",
"                 >A$$$$$$$$$$$$$$$$$$$$$$$$$$$$$$$$$$$$$$$$$$$$$$$$$$$$$$$$$$$$$$Z>                 ",
"                  C$$$$$$$$$$$$$$$$$$$$$$$$$$$$$$$$$$$$$$$$$$$$$$$$$$$$$$$$$$$$$$C                  ",
"                   V$$$$$$$$$$$$$$$$$$$$$$$$$$$$$$$$$$$$$$$$$$$$$$$$$$$$$$$$$$$$Z                   ",
"                   r$$$$$$$$$$$$$$$$$$$$$$$$$$$$$$$$$$$$$$$$$$$$$$$$$$$$$$$$$$$$r                   ",
"                    N$$$$$$$$$$$$$$$$$$$$$$$$$$$$$$$$$$$$$$$$$$$$$$$$$$$$$$$$$$e                    ",
"                    fM$$$$$$$$$$$$$$$$$$$$$$$$$$$$$$$$$$$$$$$$$$$$$$$$$$$$$$$$GE                    ",
"                     R$$$$$$$$$$$$$$$$$$$$$$$$$$$$$$$$$$$$$$$$$$$$$$$$$$$$$$$$n                     ",
"                      b$$$$$$$$$$$$$$$$$$$$$$$$$$$$$$$$$$$$$$$$$$$$$$$$$$$$$$b                      ",
"                      ts$$$$$$$$$$$$$$$$$$$$$$$$$$$$$$$$$$$$$$$$$$$$$$$$$$$$s                       ",
"                       cg$$$$$$$$$$$$$$$$$$$$$$$$$$$$$$$$$$$$$$$$$$$$$$$$$$gc                       ",
"                        WQ$$$$$$$$$$$$$$$$$$$$$$$$$$$$$$$$$$$$$$$$$$$$$$$$QW                        ",
"                         hg$$$$$$$$$$$$$$$$$$$$$$$$$$$$$$$$$$$$$$$$$$$$$$@f                         ",
"                          ds$$$$$$$$$$$$$$$$$$$$$$$$$$$$$$$$$$$$$$$$$$$$ap                          ",
"                           iu$$$$$$$$$$$$$$$$$$$$$$$$$$$$$$$$$$$$$$$$$$yi                           ",
"                             r-$$$$$$$$$$$$$$$$$$$$$$$$$$$$$$$$$$$$$$-r                             ",
"                              qe$$$$$$$$$$$$$$$$$$$$$$$$$$$$$$$$$$$$wq                              ",
"                                !@$$$$$$$$$$$$$$$$$$$$$$$$$$$$$$$$@!                                ",
"                                 409$$$$$$$$$$$$$$$$$$$$$$$$$$$$5%4                                 ",
"                                    32$$$$$$$$$$$$$$$$$$$$$$$$<3                                    ",
"                                      &*;-$$$$$$$$$$$$$$$$-=*&                                      ",
"                                          .%oO+@#$$#@+OoX.                                          ",
"                                                                                                    ",
"                                                                                                    ",
"                                                                                                    ",
"                                                                                                    ",
"                                                                                                    ",
"                                                                                                    ",
"                                                                                                    ",
"                                                                                                    ",
"                                                                                                    ",
"                                                                                                    ",
"                                                                                                    ",
"                                                                                                    ",
"                                                                                                    ",
"                                                                                                    ",
"                                                                                                    "
};
