/* XPM */
static char *result[] = {
/* columns rows colors chars-per-pixel */
"20 20 7 1 ",
"  c #ACACAC",
". c #B29D98",
"X c #C66B51",
"o c #D14E28",
"O c #DA3809",
"+ c #C66A50",
"@ c #D14D27",
/* pixels */
"                    ",
"                    ",
"      .XoOOoX.      ",
"     +OOOOOOOOX     ",
"    @OOOOOOOOOOo    ",
"   +OOOOOOOOOOOO+   ",
"  .OOOOOOOOOOOOOO.  ",
"  +OOOOOOOOOOOOOO+  ",
"  @OOOOOOOOOOOOOOo  ",
"  OOOOOOOOOOOOOOOO  ",
"  OOOOOOOOOOOOOOOO  ",
"  @OOOOOOOOOOOOOO@  ",
"  +OOOOOOOOOOOOOO+  ",
"  .OOOOOOOOOOOOOO.  ",
"   +OOOOOOOOOOOO+   ",
"    @OOOOOOOOOO@    ",
"     +OOOOOOOO+     ",
"      .+@OO@+.      ",
"                    ",
"                    "
};
