/* XPM */
static char *cf36ac1dae34430bb2bbcba85f6dbc4bJN4wAhonnNvcmyBI[] = {
/* columns rows colors chars-per-pixel */
"100 100 56 1 ",
"  c #362E2A",
". c #373029",
"X c #3B342E",
"o c #3D3631",
"O c #3F3832",
"+ c #403733",
"@ c #423B35",
"# c #453E39",
"$ c #493F3B",
"% c #474039",
"& c #4B433D",
"* c #4E4641",
"= c #4F4842",
"- c #504643",
"; c #524B45",
": c #584D47",
"> c #564E49",
", c #584E4A",
"< c #585147",
"1 c #57504A",
"2 c #5B544D",
"3 c #5F584E",
"4 c #5E5651",
"5 c #5F5851",
"6 c #60554F",
"7 c #60594F",
"8 c #615751",
"9 c #625B55",
"0 c #665E59",
"q c #685F5A",
"w c #676056",
"e c #686157",
"r c #676059",
"t c #6A635D",
"y c #6F685E",
"u c #70695F",
"i c #6D6661",
"p c #6F6862",
"a c #706662",
"s c #726B64",
"d c #756E69",
"f c #786F6A",
"g c #787167",
"h c #777069",
"j c #7A736C",
"k c #7E7771",
"l c #7F7871",
"z c #807772",
"x c #827B74",
"c c #867F79",
"v c #87807A",
"b c #8A837D",
"n c #8D8680",
"m c #8F8881",
"M c #918A83",
"N c #958E88",
/* pixels */
"tett9&9y1ww3531320it00tit4*@***&;451%9t53223327etetyii5&ee39w<737339tytettt5;@=%*%=552&3tw1132335ety",
"ssse3&3twdgyw9tpddddjkd0t4;o&*>12444&2t9wspw2ysuyeyupr2&39ejjywwetuhhsgjsppw;X=;1;1532%1rwehsrwypyte",
"gjd9<%3txxvzpyjvnnbnnnkd09>@&;499140&;00jvcsgcvlsugkdr1*2ekxxkuykxmmmbbmjpt51O=;592553%<5whxxsyjvlsy",
"ggu9<&5ybssjsesgpdjjdp00442#;>44525i&;90pyeypsptsggjp02*3uvguluygsphjjutdr551%;=5r22we&<7essppggusss",
"gt993&9yxyysytyyiiddi000944&>44433ee*195prwpstrypsdi992#9plduspphptpshpwt5555&1;3523ep=<5weeetpeweps",
"s9383%<wpddytssti00i0000i9>&14995we9*135wetr739eypp0494#24pdsirpteeettee55t91%453w55et%=535tpe53etpt",
"9534<@&<1tt53w99004000949>&#44409e3;#=;37re722799905452#*>4ti99959ww99ww55r2=#2555ee71@&125ee9735555",
"<35<>O&&<2<291<7422442444&@#1449re<%O#&52112532<211444;o#1>>120;2213<<13551%##2155ee;&O&%351<37<3112",
"@%&%oXOO%O@%&&&&#*#*;#>  oooo@#*&=@OOO@@%%%@XXO@ @@&=#O@oo@@@&**=&%%&%=&*ooo@ooo=%&=%X%OX%%@&%XXOOX.",
"%&&;;<<=%<93<<17>4>*=4djddi044>;&&<227tssgsspyewi0#@=;;>4>11444><11<<&<<ddipi0941==&<173wyssgstyteww",
"O%;<3weweuuyyww3944*4iknnckddi0>=#wgusjvmbbmmnclki&#1559490tii00r5r55&9tcnnnkkpiw<=%ehsslmMmmbbmllkj",
"&&39wysjbbbbbvks044#dxpdddiiddt42#scgsuhuyeeyutri0==590tdkcnnnnchpr93&yvtddpipdpe7<@pbgsesuteytypttt",
"&<7wepsddjxljgdgd4>#jmdddi0iddi07%ucgspguuettyytt0>=27tgisjkcckkkpi91&pNiddt9ijjtew%pvpsguptttttteet",
"&<7epdpyydjhsysst94#dcdkditiddi0w%wgtssptyyytreyi0==wysgpiipddi0dir54*pnkkkpiiddetw%egepgytttttwtytt",
"&2ysggdydsytyyee944*ijiiittitt042&2e7wpwwwetw97992&;ugsyhdppssitir041=tk0it00iii7e3%3wwey5wpeeew3357",
"%1ysewyssyw9ryew944#9diiitiit044<=<w3wy1www9212252*2sutetsdt94tir0522=0pppiiiii0351&3155e23tt7311377",
"&3ir455444490t49i11;19kddpi0tt044#9p450944444>>499;1p0194444920p04p51>>9jkdpiii0404=1tr50042991>;255",
"&;=&O%&%#*;=4i0t991*4idiiti0004>;*>=*#O***###@o#%&#%=&O%###&;&4000i44#4iiiiii09441*;11&@o&=#O#%#@#*;",
"<<1=**%O#;>#1ii01t1#0i990ii004>=#&*&*>*>####**#*=252>*&%%&%=1&4p00454#0p0ii0i0041=##;===1===#&=#%%=1",
"kprr555r400;4i01404#0i9444444>=*&o190dd114449942tissttr494400=4p94445*9i14954444*=&O;5isj;=45995555t",
"dpklldir009#==*&>*%@**1=>*#*;;*#&o9iddi#4iddjkkkjppddxxsirrr0@%;**>**#*=;;**##*>#&&#5idst=;ippklllkh",
"5ijllji5i42X@o#*;o##@#>%#oo#*;*#O&0tjt>*>0djcccnksipdxcstt009oo##@;@##O&;*#@@##;1#@@rpdi1=2ihlbcxxkd",
"0555555r049O**240104140;#@#*>4>;&O40x04>10iii049r545400455444#&*419454449=#o#*144=#o9ihp2;=4ippr0554",
"*==>1;****1o;>0tipdiiit*o@*200044 4pki9**1114>;;&*=;==;1==**>&=10ttdk0pi0>@@;490444o2pki9;&151;2;=*=",
"OOO***#oo***>9tdcccdkdd>#*>40000to9ddd0;*;#*;**oOOOo@&***@ #=*200dccckddd>o=44tt1iiX5dsdr;****=&*.XO",
"****1541o>449tipccdidpd4@444kd0dto4di04*>40ijd9@&==***>24=#>049rtjckdiitd5&>44dj0dio0dit5==5riss5%%=",
">>*;4505o1riissdcdi0i0d0*400pdddio0d094*;0iiii4@*=>*=>40t2#>00ippjkji0ipd4=499iddjiO9dt02=;0piii5#*1",
"55450ii0*5pddkkkdittp0t1;>400pdi9o2i014&2pp0445*>99999rip0=4ddkkjjjpt0tii1*4tti0di4o1t015;2pi055w%=5",
"irr0051;&40000990440t40;&0ttkkii1o104>1#>0545r0&200iit94;>*4i009099009440>#10tddd01#1001*%;rr55r9&;w",
"550552;%*45422>>1;>;>;4*&;>44044;#>24**o*444544;>4240044**#191>>1>*=121>>==144it01*&>14=@@=555553&;7",
"oO***###o&*%****oo@ooX#o& @#o@*o#&*&=##Xo####oOO###o%***O@o#****=%ooooooXoo#oooo#@O&&*=#OXO#####@.%&",
"5004>*#O%>2>241>4tit040>*>>>2;&#&44>4>1>2>>442>>409994>*@#@>4111114tii0594>>>14=##*9111>111112311;ww",
"puyw3<@%;3977wrwusjjhuytwrw73;@=>10000i0qqq0088q0daat91;&@;<w98rwtyghlgttewwer52@&<355eetetewee700ip",
"hpe337=&29ytshljgyujjuisjjsiy2&3440idcmmNnkaaaaffkaat333;&9wyypjjjhsugkktgkhst9<&339wtklmmmblsytsdhk",
"uss733<<ttywwtuplptsguyueiw7w<%7iipdkkddfkdiaffdffaddw7w&&ywt9wyuhhytyypwtttw55<%7etygxxsslxgysgpshk",
"wpsw2<&=ee9325wwsue9rr93<22<9;#wdddxbk00afaafkaqisissw33&<uyt315wtpyttewe51<3w51%eskhjxkeeygytsjppsk",
"ptw23<#%ww95359w99977w937979e3=w0520pi400i040094istrr31&%%53w3257ww779www997ee5<%3ww5wtew7wtw33w950i",
"71;=&%X%*=;;<<;=;==;<==<<1<1<=#<51=;1=*=>>---,>>>52<<;&@%@;&<<23<;======&=11<<<=&31<;<3;===<;=;;1=19",
"&&=@O@O&O@%======@OOXXO%=%*&&=&==***#@oo$+o+$$++@*&&&%%@@X%X%%%%%&=&%OOO@%&%@%==%=&&%@@X@OOO.X@@#O#*",
"233;7tw7tw93322233;@#;2<7132<9w94444>>44--+$44440r<22;1ww7y9w53<377<&%&=<33<3331ee75537<3<<=@=37925r",
"eewesjgusuwtw9w57w2O&399weuuusggpi00it004>&&4000yyye7wykuuyyyyw3w5553#=<wwwepsuphhgewetett3<%=559tii",
"jpygxxlgggsgstuw<33&379uejxcmmcbckiijjdd04==400idjgssjlxkkgyussyyw332%1wpwegvbbmbmblsggght55=%7tisdd",
"lgsxvxxvvxjjsysuw53=29wglbjtggjmnckdjjddi4=>00idydggjvvlvvvvljsygtw93&<5tpjvluphlvbxjghhpgt5==9wtpii",
"sgjljglbbbllsesuy71#3wtpslgtiiulccxddt0di4*=00pkypssgkkdzvvvvkywhpw95%399yjxjtwtglvvlkhuegp3%<e3pddi",
"usjsetsjghjlseuw333&9uttrtdhpsjddkkdittdi4*>40ijkspshsyehhjhgjsype51<&9yttwtdhdtjjkhhgpttt55<=7wpdjd",
"wrw79eyyuupst5w5293%2wttp9tp40dt000tii0004*>900idewee935yypppytw55933&3wyye9rpt5utw5weeeeew5<=w55ipi",
"22223wwett995293932@29wtirit49025414004904**1990e51332255werye3<33w72%195etyrr09e7335wet3te3&=715iir",
"977r712w353w93w39;%@wuw7254259990095044004*@*40ipye33555w53235w5553=&@5pw53554457w7555555555&@=34pit",
";;1;4=1=111;;>;*>#o#*>;*>>>=>&*>*&#>;>*>;*#o@;114<=2;=>>>=>=;1;2%=<%%O&<&=<=121&*;**==>1>>>;#o#>4114",
"===&=@===&%*=&#@**###oo#>**o&o@o@#@&#;;;#@###%*;=&*****#*****=**%%%%%%%%%%==%#OOooo####==*##@##o==**",
"ttt99=9t490944421900000t04>#*&*#*4>>&40411444459irrrii5*5i4ii502<239ww97rrye;%*=**=141;1i9114594400i",
"psst4%409dji99tiddkkjkdii0>o*;22>004*4i0tdp04pdpiipsii4O5r5ddrr0eyghgjjjppt5=O#;1>4404;1040dp90pppii",
"jjhi4%5iccckspjxcnncccki04>X#>444404#>44dccpdxckssjjdi4*40lcclspjxvmmmbvjst51&*1414404#>0tjncppkckdt",
"ksi51#5pbhiddiikddkkjdit04>#=>944400*>0tiiiddpiisihji5=*4ibjskp0gguhjjsttr55;&%=045409#150ppppdjppip",
"jpr54*5pksissitpipidi04942>&>144440i%>04ttippi0ihdhsi52*0dksipdisuyussywrr551=;144910i*10000tipi0tpd",
"i9544&45idhptiitit0iit00i02=240444ti*>040ti0450irii5152*>50jjii0wtyeyett5rt51;194401ii#>440ppt5400ii",
"05104#*100t009009t04t49904##4440i04*##2049909995i044994O*1900005999w5w99440>*#104i9i4=@**5t450059000",
"2444=o*>1>112421>>>=4444>=#@>>4004>###*;44411114=11441>O#*>>>12421<<122<041##@;110001*@#*4444411111>",
"X###oXoo@@##&**&**>*;#*@XXo ##;=**#oXoo@####ooooo#O####ooo###&**&%&&=%==#OoX@o###*#*#@ooo####ooooooo",
"o&*>111==1442111>>>#*4ijiti0411#**>240ijdddddii004##=>2>>>;;254;1122<=<<dpiii04>1>==;555tpddddpdit00",
"##=440400ppdp004044*0dcmmncddii;*#4ddidnnnnnmnckk0##1444000isdi055521#4innNncjdi9>;#5ddiknncnccnxkdj",
"=>450ipkncccnckd044*icitdiiidii44*dnjitjdi00iii0di>;440idkcnnnbchhpr5&dc0idiiidpi91#pnjd0dditiiiiiii",
"*;000ppdkkxxkkddi01#dnddddt0kd004#icpppppit0iiit00=>940sidkkxxkkkpr44@dcddkiiijdi09#pkipddpipitit00t",
"*>00pxs00dkdiisd004#dndkdpt0kpiii#ij0dki0tiii0tti0*=00ikiitidjs0hpr55#dnjjd0iiddiit#ijiddp0ipt0iiiii",
"#>0ddipkjdpipp0i>04#dk0iitiiii004*>940i99ipt044940#*dpdidkkppipip0544=ikiiitttii404&4940i09ii0445459",
"*4iit0iip000ii40501#0pipiit000444*1t40024999411440*4dii0iip0000i00041*5ipdiittt0444#40409440ii941255",
"#4t0445454440i00i54&40dkdpiii0444*40940009490>>044*4i4444444510p90094*50kdddiiit411*00499094441*=454",
"#=>#@####&**4i00041#40ipii0it541=*;4#O&*&#O##o #**#*>####O&*;*4i00944&40iiiiit044>>#>>#@#**###*#@%==",
"41;*#####;>*1ii0454#0p00t00004>;&#*;****&*&#=&##*11>;**###*;>&1ii0944*5d000tt0444==#****>##*##*###*>",
"dpiii0504t0=1i04404#0i50444041;=##=4iki1=44440440ddpii0401500;4i94405*4i40444044>###>0idd4149494090i",
"dddkkpt0004##>**=**o*;;;=*#*;=*##*1tdd9*2isskkkkdddddkjii0004&&;#=;*=o*=;==****==##o>idi0**0idkkkjdd",
"5idckdiii01#o#@#=O*#O#=*##o#===#O*4sdi4*10dkcncnkt0ijxkki0i04#o@@*=##o*#**#oo#&**#=*4ddi4*4ppkccccxd",
"05554490404#&*144444440=#o#>=40;* 4pdi4*>4iii0444994444404044o#&444144444=@##*449**o0pdi4*;9ipp05405",
"#**;>>***;*#*10iiddppit=o#=100441 4skd0*;>>4>>>>**;**>>>***>1&>40idddpiit=o#=40044>o4pjd0**>>11>;&=&",
"@##&***@o**>>5tpkccdddd>o;;4dt1i0o4ddd0**&**=;#ooo@o@#**o# ***>40pkccjddp;o#14ii4i0o4dki0>*;**;*=@@@",
"&**&*44>o;>05i0dcckippj4#440dp0jio0di00=>90idp9&&&*&#*>441#>455i0dccjiiij4*404ij0dio0dp04**90ipp2#%=",
";>;;40i0#10ppdpkcdi0iid4&400tpdd0o0d044;;4tid04@*>>>;>4004#>5iipddkki00id4*444pdpd0o0pi44*>0ppdi5#*2",
"99940i00*4iddjdddittptt4&10ttddi0o4i041*4it0099&>4044400i0*0djjkddddi00ii>&10ippkd4o9i944*>0i9410%;9",
"tt0t001;&4i0t0000040t40==4tpdddt4o1444>#1i04440&40tiittt1;*1i000t004404001=4tpjpp04o1491*#>i00000%10",
"49909>*##10>1>4>>11>>>4*#>14t044>@141;#o*441440#;1440041&#*1011111;>411;;**>14t0911o>14>#@*04>444#>4",
"O#*#*=O@O%**%**%oo oooo##o#oo##o#>*@*#o#o@##*#@@*#o@**;##o##***-*@ooooooo@@@@oo@&#@**#*##oo@#**#Oo#*",
"4404;*@&&;1112214iii000>>*>>>>#*#>144>**14411>>>>04004>*##*;4>>>144iii0401;=>11>O**1444;>>>1144>>>40",
"dpt54>##;450rtiridkdddi000i00*#*14000iii00044400idiii44;##>>00000ipdkkjiii0ii041#*>455tiitti009409ip",
"dp0405=&50iipdhhdiikdiiddki00>#4149iikbnnbxdddidkkdii440**40iidddkdiidjjipdjpi44*>4500dknnnckdpidpdk",
"tdj044>>itt0rpddki0ddiii0i040>*00iijccddkkdiddiiddidd044>>i0i000pdkiiipiiii00444&4idddcxddjkdpdpdpdk",
"idd044==t054550rpii00i0444440>*0dkddcd00idiiddddididd0>4#;0004440idi0ii009114441*0ddddkk90idppdkitdd",
"it9>1>##0054555500444004400404*49040ii90ii040944ii00044>#*0400044000949994490041*50000pt090i9444050i",
"4>>;=#o%=;;>111>>;;;***>>>>*>**44>>4>*>**>>**>>>;00>>**#o#>*>>>>>;;;;;*;;>>>>111#441>>4==*>1;*;>;=14",
"#**Oo@#@OO%*&&=*%@OX@O@%*#**#*>#*&*&@oo#oooo#*###*&#;#o##+++#$-*#=*@#o#o@##*#*===**#**#o#@@@oo#*%##*",
"44415t00i0094455w3<O&=23444>140i04141444>*#&444444444>400000004>444>;o#*14004114090444411>>##*>4540i",
"it5idjdpdrrirr9537<@=2w94iiipiiddi40ii004>#*4044sii040iddiaii004i0404#=40440ipdpjjdi000iii4>*=4005td",
"dppdkxkkdpsdppir232&2wyeidccmnnNckpidddi04**4iiiddkdidcckkfaiddii4444#>0di0jcnnNcnckpidjppi1==40iipd",
"kdkccccbnclkpphhew<&25yphxkpdddcnckkddddi4>*4iidsidddcckccccczaqdit54#1t0pkckpidkcnckjjkpdp4=;40pddp",
"ddjkkdkcbcxkptpse3<&25tpkxhitidkccckdtidi4>*40idsidkkkkszzcncza0dpt51*40ipkkjiipjknckkdipdp4=;4iidpi",
"isddiidkhhklsitr332=9tpi0rppidkkkdkdiiii04>>40ikkddsddi0fkkfkfaai0044*5ii00idjdpdkkkkdp00p01==40pkhd",
"500050tidppprr99372%1rp9iisi00itt00ti00t04**440isi44i040aiaadaa805444#10i0iiii00pi090ii09ii4;>499ppi",
"5544450000i0996837<&:t0ttqrr00004444000a44--400qaq44444,qqqqq04815541#49iti0t040i544450050i5=*1550tr",
"55444499590889686:#@3s059599444449440044q4$$-,4aaq84488880800444004>*#5i44090915544555055501*&>1tipi",
"11>>>>>>;;<-,,--:&++*2;;>;>>------->>>>>,-++$-,4,,,,,,,,-,,,,,,,=>>##o;=*=>=11*;=*;>;>>>>>>*#o#=>122",
"&&*&&&&&=**&--+$&#$+oXX&****#@#O++++$---$+++$$-$--$$$$$$-$-$$-$-o#*@#o@oO#***=o@#ooooo#*#*#ooo#*&*&&"
};
